HIERARCHY
ROOT Hips
{
	OFFSET -3.958830 18.904000 13.208200
	CHANNELS 6 Xposition Yposition Zposition Zrotation Yrotation Xrotation 
	JOINT LHipJoint
	{
		OFFSET 0.000000 0.000000 0.000000
		CHANNELS 3 Zrotation Yrotation Xrotation
		JOINT LeftUpLeg
		{
			OFFSET 1.800000 -1.400000 0.085000
			CHANNELS 3 Zrotation Yrotation Xrotation
			JOINT LeftLeg
			{
				OFFSET 2.215000 -6.000000 0.000000
				CHANNELS 3 Zrotation Yrotation Xrotation
				JOINT LeftFoot
				{
					OFFSET 2.500000 -6.900000 0.000000
					CHANNELS 3 Zrotation Yrotation Xrotation
					JOINT LeftToeBase
					{
						OFFSET 0.200000 -0.500000 1.950000
						CHANNELS 3 Zrotation Yrotation Xrotation
						End Site
						{
							OFFSET 0.000000 0.000000 0.000000
						}
					}
				}
			}
		}
	}
	JOINT RHipJoint
	{
		OFFSET 0.000000 0.000000 0.000000
		CHANNELS 3 Zrotation Yrotation Xrotation
		JOINT RightUpLeg
		{
			OFFSET -1.800000 -1.400000 0.085000
			CHANNELS 3 Zrotation Yrotation Xrotation
			JOINT RightLeg
			{
				OFFSET -2.215000 -6.000000 0.000000
				CHANNELS 3 Zrotation Yrotation Xrotation
				JOINT RightFoot
				{
					OFFSET -2.500000 -6.900000 0.000000
					CHANNELS 3 Zrotation Yrotation Xrotation
					JOINT RightToeBase
					{
						OFFSET -0.200000 -0.500000 1.950000
						CHANNELS 3 Zrotation Yrotation Xrotation
						End Site
						{
							OFFSET 0.000000 0.000000 0.000000
						}
					}
				}
			}
		}
	}
	JOINT LowerBack
	{
		OFFSET 0.000000 0.000000 0.000000
		CHANNELS 3 Zrotation Yrotation Xrotation
		JOINT Spine
		{
			OFFSET -0.087000 1.940000 -0.288900
			CHANNELS 3 Zrotation Yrotation Xrotation
			JOINT Spine1
			{
				OFFSET 0.000000 1.950000 0.060000
				CHANNELS 3 Zrotation Yrotation Xrotation
				JOINT Neck
				{
					OFFSET 0.000000 0.000000 0.000000
					CHANNELS 3 Zrotation Yrotation Xrotation
					JOINT Neck1
					{
						OFFSET 0.000000 1.600000 0.340000
						CHANNELS 3 Zrotation Yrotation Xrotation
						JOINT Head
						{
							OFFSET 0.000000 1.667000 -0.240000
							CHANNELS 3 Zrotation Yrotation Xrotation
							End Site
							{
								OFFSET 0.000000 0.000000 0.000000
							}
						}
					}
				}
				JOINT LeftShoulder
				{
					OFFSET 0.000000 0.000000 0.000000
					CHANNELS 3 Zrotation Yrotation Xrotation
					JOINT LeftArm
					{
						OFFSET 2.700000 1.550000 -0.730000
						CHANNELS 3 Zrotation Yrotation Xrotation
						JOINT LeftForeArm
						{
							OFFSET 5.450000 0.000000 0.000000
							CHANNELS 3 Zrotation Yrotation Xrotation
							JOINT LeftHand
							{
								OFFSET 3.450000 0.000000 0.000000
								CHANNELS 3 Zrotation Yrotation Xrotation
								JOINT LeftHandIndex1
								{
									OFFSET 0.750000 0.000000 0.000000
									CHANNELS 3 Zrotation Yrotation Xrotation
									End Site
									{
										OFFSET 0.000000 0.000000 0.000000
									}
								}
							}
						}
					}
				}
				JOINT RightShoulder
				{
					OFFSET 0.000000 0.000000 0.000000
					CHANNELS 3 Zrotation Yrotation Xrotation
					JOINT RightArm
					{
						OFFSET -2.700000 1.550000 -0.730000
						CHANNELS 3 Zrotation Yrotation Xrotation
						JOINT RightForeArm
						{
							OFFSET -5.450000 0.000000 0.000000
							CHANNELS 3 Zrotation Yrotation Xrotation
							JOINT RightHand
							{
								OFFSET -3.450000 0.000000 0.000000
								CHANNELS 3 Zrotation Yrotation Xrotation
								JOINT RightHandIndex1
								{
									OFFSET -0.750000 0.000000 0.000000
									CHANNELS 3 Zrotation Yrotation Xrotation
									End Site
									{
										OFFSET 0.000000 0.000000 0.000000
									}
								}
							}
						}
					}
				}
			}
		}
	}
}
MOTION
Frames: 7
Frame Time: 0.016667
0.894150 18.086830 0.254750 -11.685275 22.563715 -7.097189 -15.202206 12.970120 2.189352 11.037503 -0.421936 -5.968037 -6.798088 6.199815 11.056103 -0.302381 4.564561 3.192519 0.207240 -0.141890 0.054710 18.393159 -9.714865 4.308788 -14.314128 8.670554 -40.960074 7.162368 -14.702399 58.839717 -1.181340 -9.586188 1.237456 -0.009940 0.362950 0.044510 -4.108713 -1.855144 -8.205727 11.956196 -1.987426 12.882608 0.705885 -0.917203 5.399231 0.899994 -0.268068 -8.192158 -4.583653 -3.658801 43.208907 2.818520 -8.592330 0.479350 -18.845990 -4.333283 2.115302 -50.017959 -1.197456 -6.149143 -35.107183 -16.844031 2.033573 -3.732430 3.028711 0.396410 0.138490 -0.215070 0.236230 17.269243 4.519403 4.832754 43.730573 -5.830734 -12.035873 41.168944 34.000433 7.078464 2.116742 -1.585889 -0.275600 0.265870 0.028130 -0.119350 
0.895200 18.088370 0.264130 -11.294184 22.851823 -6.908736 -15.244288 13.032585 2.275295 10.698710 -0.441510 -5.924252 -7.186185 6.198079 10.687688 -0.281735 4.562320 3.189647 0.221990 -0.125880 0.068250 18.331328 -9.805128 4.152757 -13.972378 8.102456 -40.081578 6.945161 -13.539682 55.565604 -1.016831 -8.911915 1.435026 -0.008590 0.351420 0.059670 -3.966861 -1.901942 -8.126047 10.706841 -1.769091 12.370247 1.468067 -0.930393 5.688400 0.834317 -0.067056 -8.249089 -4.217068 -3.941400 42.983646 2.540460 -8.552980 0.458030 -18.388515 -4.507148 2.291134 -50.452670 -1.367485 -6.104354 -35.296160 -16.765571 2.029522 -3.731927 3.052812 0.383910 0.140720 -0.207790 0.236520 17.084550 4.681486 4.797579 43.390794 -5.412804 -11.722495 41.109840 33.263465 6.857143 2.125578 -1.596026 -0.254170 0.246490 0.017790 -0.116430 
0.895790 18.083090 0.296010 -10.730311 23.667279 -6.679750 -15.304905 13.167103 2.425628 10.025106 -0.459890 -5.581106 -7.356278 6.023967 9.737350 -0.280067 4.531985 3.205870 0.234660 -0.123300 0.094980 18.226623 -10.041781 3.794797 -13.082853 6.815312 -37.796877 6.725304 -11.431343 48.407807 -0.690804 -7.506155 1.859094 -0.005330 0.338180 0.074050 -3.763176 -1.924029 -7.916460 8.867248 -1.498360 11.125530 2.428564 -1.031317 6.261229 0.770243 0.372484 -8.285213 -3.372989 -4.486582 42.376243 1.945710 -8.388640 0.474450 -17.665538 -4.749115 2.526327 -50.836764 -1.719436 -5.870119 -35.407287 -16.377960 1.955767 -3.734333 3.075572 0.379030 0.143530 -0.205030 0.230450 16.692232 4.716140 4.744788 43.480125 -4.907961 -11.365247 40.631310 32.023070 6.367183 2.135400 -1.603084 -0.246690 0.227020 0.009670 -0.125420 
0.900300 18.068980 0.334060 -10.247042 24.547243 -6.320771 -15.370275 13.307302 2.579881 9.368850 -0.462814 -5.429118 -7.679605 5.932268 8.975119 -0.264996 4.528351 3.220355 0.212530 -0.137910 0.070040 18.114280 -10.316031 3.377483 -11.981272 5.307822 -35.102110 6.135866 -9.056402 39.672413 -0.328100 -5.865137 2.411124 -0.009570 0.363190 0.083150 -3.538653 -1.912493 -7.636187 6.835301 -1.149801 9.375088 3.657065 -1.113300 6.851467 0.682722 1.037211 -8.316684 -2.030549 -5.031839 41.439122 1.344660 -8.159920 1.394730 -16.852553 -5.105916 2.788943 -51.488014 -2.290578 -5.382091 -35.381171 -15.207143 1.713434 -3.768056 3.095985 0.342220 0.177400 -0.229270 0.232560 16.278564 4.684481 4.698626 43.279171 -4.497148 -10.811635 40.596833 30.366332 5.860225 2.139738 -1.616220 -0.245530 0.215360 0.018980 -0.116070 
0.916420 18.030350 0.376530 -9.351003 25.408324 -5.601870 -15.432522 13.381692 2.716175 8.230519 -0.449575 -5.370335 -8.239044 5.858180 8.150007 -0.269341 4.551990 3.236246 0.169890 -0.191230 0.039750 18.025651 -10.533349 2.986739 -11.612522 3.647541 -32.350331 5.856386 -7.060749 30.053941 -0.019445 -4.336873 2.957293 -0.024430 0.409640 0.095610 -3.333235 -1.883822 -7.330259 4.686449 -0.884498 7.213144 4.639937 -1.247733 7.692747 0.548683 1.500333 -8.395447 -0.995574 -5.620344 39.815653 0.453160 -8.040040 2.344350 -15.450515 -5.302210 3.123200 -52.361962 -2.658605 -5.102506 -35.913974 -14.773735 1.670744 -3.817438 3.109266 0.311990 0.225460 -0.272110 0.225430 15.307269 4.595523 4.712954 43.723020 -3.995625 -10.328289 41.201030 29.004528 5.561486 2.132631 -1.630004 -0.265210 0.213650 0.049170 -0.115850 
0.935330 17.968690 0.411210 -8.463571 26.066104 -4.732508 -15.480631 13.353391 2.791656 6.946237 -0.431588 -5.411779 -8.692499 5.742731 7.256660 -0.278693 4.547228 3.262821 0.113880 -0.267720 0.021740 17.977421 -10.603173 2.777062 -11.840076 2.463043 -30.039305 6.038308 -5.563604 21.022057 0.177870 -3.271918 3.358208 -0.048310 0.444210 0.094800 -3.181947 -1.828508 -7.123400 2.759374 -0.603686 5.222200 5.469829 -1.268160 8.320558 0.445917 1.931428 -8.657211 0.014050 -6.211184 38.250811 -0.859100 -7.699850 3.693010 -14.019485 -5.778616 3.607323 -53.190511 -2.778588 -4.939929 -36.417895 -14.362282 1.597214 -3.863300 3.114066 0.282970 0.268580 -0.320720 0.204060 14.173107 4.829417 4.850724 44.551049 -3.281107 -9.821047 41.172457 27.670247 5.154560 2.135862 -1.636359 -0.296180 0.208680 0.081120 -0.129500 
0.950660 17.901440 0.429530 -7.745861 26.389250 -4.023486 -15.511928 13.283222 2.779443 5.752179 -0.402262 -5.641696 -8.914019 5.757416 7.325842 -0.291945 4.583605 3.277490 0.039290 -0.371290 -0.034830 17.959845 -10.533386 2.779820 -12.366278 1.902564 -28.462286 6.541342 -4.537068 13.683826 0.276857 -2.774220 3.568681 -0.089380 0.518700 0.114350 -3.086752 -1.806240 -7.045866 1.277723 -0.306388 3.967054 6.164664 -1.150134 8.499138 0.275465 2.143505 -8.954469 0.650148 -6.605421 36.615961 -1.227840 -7.967370 4.903800 -13.281392 -6.525551 4.067181 -53.832147 -2.683969 -4.856531 -36.418372 -13.777061 1.365617 -3.933238 3.110469 0.259250 0.324830 -0.378160 0.193420 13.796056 5.504424 5.071008 44.114728 -2.797220 -9.246875 42.208305 26.602847 5.047376 2.124783 -1.640591 -0.328190 0.214630 0.138920 -0.126710 
